<?xml version="1.0" encoding="utf-8"?>
<!-- Generator: Adobe Illustrator 17.1.0, SVG Export Plug-In . SVG Version: 6.00 Build 0)  -->
<!DOCTYPE svg PUBLIC "-//W3C//DTD SVG 1.1//EN" "http://www.w3.org/Graphics/SVG/1.1/DTD/svg11.dtd">
<svg version="1.1" id="Layer_1" xmlns="http://www.w3.org/2000/svg" xmlns:xlink="http://www.w3.org/1999/xlink" x="0px" y="0px"
	 viewBox="0 0 1000 400" enable-background="new 0 0 1000 400" xml:space="preserve">
<g>
	<path fill="#FAAF40" d="M20.8,197.4c0-7.4,1.4-13.9,4.2-19.7c2.8-5.8,6.5-10.6,11.2-14.5c4.7-3.9,10.1-6.9,16.3-9
		c6.2-2.1,12.6-3.1,19.4-3.1c7,0,13.3,1.1,19,3.4c5.6,2.3,10.4,5.1,14.2,8.5l-12.1,16.2c-6.5-4.6-13.1-6.9-19.6-6.9
		c-7.6,0-13.8,2.3-18.5,6.8c-4.7,4.5-7.1,10.6-7.1,18.3c0,7.7,2.3,13.8,6.9,18.3c4.6,4.5,10.5,6.8,17.9,6.8c4.6,0,8.9-0.8,12.8-2.5
		c3.9-1.7,7.4-3.6,10.5-5.9l10.7,16.6c-5.3,4.5-11.2,7.8-17.7,9.9c-6.5,2.1-12.7,3.1-18.8,3.1c-7,0-13.5-1-19.4-3.1
		c-5.9-2.1-11.1-5.1-15.6-9c-4.4-3.9-7.9-8.7-10.4-14.5C22,211.4,20.8,204.8,20.8,197.4z"/>
	<path fill="#FAAF40" d="M109.8,197.4c0-7.4,1.2-13.9,3.7-19.7c2.5-5.8,5.8-10.6,10.1-14.5c4.2-3.9,9-6.9,14.4-9
		c5.4-2.1,11-3.1,16.8-3.1c5.8,0,11.4,1,16.8,3.1c5.4,2.1,10.2,5.1,14.4,9c4.2,3.9,7.6,8.8,10.1,14.5c2.5,5.8,3.7,12.3,3.7,19.7
		c0,7.4-1.2,13.9-3.7,19.7c-2.5,5.8-5.8,10.6-10.1,14.5c-4.2,3.9-9,6.9-14.4,9c-5.4,2.1-11,3.1-16.8,3.1c-5.8,0-11.4-1-16.8-3.1
		c-5.4-2.1-10.2-5.1-14.4-9c-4.2-3.9-7.6-8.7-10.1-14.5C111,211.4,109.8,204.8,109.8,197.4z M136.6,197.4c0,7.7,1.5,13.8,4.5,18.3
		c3,4.5,7.6,6.8,13.6,6.8c6.1,0,10.6-2.3,13.6-6.8c3-4.5,4.5-10.6,4.5-18.3c0-7.7-1.5-13.8-4.5-18.3c-3-4.5-7.6-6.8-13.6-6.8
		c-6.1,0-10.6,2.3-13.6,6.8C138.2,183.6,136.6,189.7,136.6,197.4z"/>
	<path fill="#FAAF40" d="M209.4,197.4c0-7.2,1.1-13.7,3.2-19.4c2.1-5.7,5-10.5,8.5-14.5c3.5-4,7.5-7,12-9.2
		c4.5-2.1,9.2-3.2,14.1-3.2c5.1,0,9.4,0.9,12.8,2.6c3.4,1.7,6.7,4,9.8,6.9l-0.9-13.7v-30.1h26.2v124.8h-21.4l-2-9.1h-0.5
		c-3.3,3.2-7.1,5.9-11.4,8c-4.3,2.1-8.7,3.2-13.2,3.2c-5.6,0-10.7-1.1-15.2-3.2c-4.6-2.1-8.5-5.2-11.7-9.2c-3.3-4-5.8-8.8-7.6-14.5
		C210.3,211.1,209.4,204.7,209.4,197.4z M236.3,197.1c0,8.8,1.5,15.2,4.4,19.2c3,4,7.2,6.1,12.6,6.1c3,0,5.7-0.6,8.2-1.9
		c2.5-1.2,4.9-3.4,7.3-6.3v-35.8c-2.4-2.1-4.8-3.6-7.2-4.5c-2.4-0.9-5-1.3-7.6-1.3c-4.9,0-9.1,2-12.6,6.1
		C238.1,182.6,236.3,188.8,236.3,197.1z"/>
	<path fill="#FAAF40" d="M307,197.4c0-7.2,1.3-13.7,3.8-19.4c2.5-5.7,6-10.5,10.2-14.5c4.3-4,9.2-7,14.7-9.2
		c5.5-2.1,11.2-3.2,17.2-3.2c6.8,0,12.8,1.1,18,3.2c5.2,2.1,9.6,5.1,13,8.9c3.4,3.8,6.1,8.3,7.8,13.4c1.8,5.2,2.7,10.8,2.7,16.8
		c0,2.4-0.1,4.6-0.4,6.8c-0.2,2.1-0.5,3.7-0.7,4.8h-59.5c1,6.6,3.8,11.4,8.6,14.3c4.8,2.9,10.5,4.4,17,4.4c4,0,7.9-0.5,11.5-1.5
		c3.6-1,7.4-2.5,11.3-4.5l8.5,15.7c-5,3.2-10.6,5.7-16.7,7.6c-6.2,1.8-12.2,2.8-18.2,2.8c-6.9,0-13.3-1-19.2-3.1
		c-5.9-2.1-11.1-5.1-15.5-9.1c-4.4-4-7.9-8.8-10.4-14.5C308.3,211.3,307,204.8,307,197.4z M370.7,187.8c0-5-1.4-9-4.1-12.1
		c-2.7-3.1-7.1-4.6-13.2-4.6c-4.7,0-9,1.4-12.6,4.1c-3.7,2.7-6.1,6.9-7.3,12.6H370.7z"/>
	<path fill="#FAAF40" d="M486.6,200l-68.7,44.5v-23.7l47.2-29.6v-0.7L417.9,161v-23.7l68.7,44.5V200z"/>
	<path fill="#404041" d="M507.6,115.9h20.6v32.4l-0.7,15.3c3.8-3.6,8.1-6.4,12.8-8.5c4.7-2.1,9.5-3.1,14.2-3.1
		c5.7,0,10.7,1,15.1,3.1c4.4,2.1,8.1,5,11.2,8.9c3.1,3.9,5.4,8.5,7,14c1.6,5.5,2.4,11.6,2.4,18.3c0,7.5-1.1,14.1-3.2,20
		c-2.1,5.9-5,10.8-8.6,14.9c-3.6,4-7.8,7.1-12.5,9.3s-9.5,3.2-14.5,3.2c-4.2,0-8.5-1-13-3c-4.5-2-8.7-4.9-12.5-8.7h-0.5l-1.8,9.6
		h-16.2V115.9z M528.2,218.8c3.2,3,6.5,5,10,6.2c3.4,1.2,6.5,1.8,9.3,1.8c6.2,0,11.3-2.5,15.5-7.6c4.2-5,6.2-12.5,6.2-22.5
		c0-8.8-1.6-15.6-4.8-20.5c-3.2-4.9-8.4-7.3-15.5-7.3c-3.3,0-6.7,0.8-10.1,2.5c-3.4,1.7-6.9,4.3-10.5,8V218.8z"/>
	<path fill="#404041" d="M684.3,241.6h-16.7l-1.6-13.9h-0.7c-4.2,4.9-8.7,8.8-13.7,11.7c-5,2.9-10.7,4.4-17.3,4.4
		c-10.2,0-17.6-3.1-22.3-9.2c-4.6-6.1-6.9-14.9-6.9-26.3v-54.1h20.5v51.4c0,7.1,1.2,12.3,3.6,15.6c2.4,3.3,6.7,4.9,12.7,4.9
		c4.2,0,7.9-0.9,11.1-2.8c3.3-1.9,6.9-5.3,10.8-10.1v-58.9h20.5V241.6z"/>
	<path fill="#404041" d="M698.2,198c0-7.1,1.1-13.5,3.2-19.2c2.1-5.7,5-10.5,8.6-14.4c3.6-3.9,7.7-6.9,12.4-9.1
		c4.6-2.1,9.4-3.2,14.4-3.2c5.2,0,9.7,0.9,13.4,2.8c3.7,1.8,7.4,4.4,10.9,7.6l-0.9-14.8v-31.7H781v125.7h-16.9l-1.6-10.1h-0.5
		c-3.4,3.4-7.4,6.4-12,8.7c-4.6,2.4-9.3,3.6-14.3,3.6c-5.6,0-10.7-1-15.3-3.1c-4.6-2.1-8.6-5.1-11.8-9c-3.3-3.9-5.8-8.7-7.6-14.3
		C699.1,211.7,698.2,205.2,698.2,198z M719.4,197.8c0,9.5,1.8,16.7,5.5,21.6c3.7,4.9,8.9,7.4,15.7,7.4c7.2,0,13.8-3.5,19.8-10.5V177
		c-3.1-3-6.2-5-9.3-6.2c-3.1-1.2-6.2-1.8-9.4-1.8c-3.1,0-6,0.7-8.6,2c-2.7,1.3-5,3.2-7,5.6c-2,2.4-3.6,5.4-4.8,9
		C720,189.1,719.4,193.2,719.4,197.8z"/>
	<path fill="#404041" d="M794.3,198c0-7.1,1.1-13.5,3.2-19.2c2.1-5.7,5-10.5,8.6-14.4c3.6-3.9,7.7-6.9,12.4-9.1
		c4.6-2.1,9.4-3.2,14.4-3.2c5.2,0,9.7,0.9,13.4,2.8c3.7,1.8,7.4,4.4,10.9,7.6l-0.9-14.8v-31.7h20.6v125.7h-16.9l-1.6-10.1H858
		c-3.4,3.4-7.4,6.4-12,8.7c-4.6,2.4-9.3,3.6-14.3,3.6c-5.6,0-10.7-1-15.3-3.1c-4.6-2.1-8.6-5.1-11.8-9c-3.3-3.9-5.8-8.7-7.6-14.3
		C795.2,211.7,794.3,205.2,794.3,198z M815.5,197.8c0,9.5,1.8,16.7,5.5,21.6c3.7,4.9,8.9,7.4,15.7,7.4c7.2,0,13.8-3.5,19.8-10.5V177
		c-3.1-3-6.2-5-9.3-6.2c-3.1-1.2-6.2-1.8-9.4-1.8c-3.1,0-6,0.7-8.6,2c-2.7,1.3-5,3.2-7,5.6c-2,2.4-3.6,5.4-4.8,9
		C816.1,189.1,815.5,193.2,815.5,197.8z"/>
	<path fill="#404041" d="M904,260.6c1.2,0.2,2.4,0.4,3.7,0.4c5.6,0,10-1.4,13.3-4.2s5.9-6.4,7.7-10.8l2.1-5.5l-39.2-86.3h20.5
		l18,42.9c1.7,3.9,3.3,8.1,4.8,12.5c1.5,4.4,3.1,8.8,4.8,13.2h0.7c1.3-4.2,2.7-8.4,4.3-12.8c1.5-4.4,3-8.7,4.4-12.8l15.8-42.9h19.4
		l-36.5,91.3c-1.9,5-4,9.4-6.3,13.3c-2.3,3.9-5,7.3-8.1,10.1c-3.1,2.8-6.6,4.9-10.7,6.4c-4,1.5-8.7,2.2-13.9,2.2
		c-2.4,0-4.6-0.2-6.8-0.4c-2.1-0.3-4-0.7-5.7-1.3l3.9-16C901.6,260.1,902.8,260.4,904,260.6z"/>
</g>
<rect x="20.7" y="265.3" fill="#FAAF40" width="855.4" height="18.7"/>
</svg>
